HIERARCHY
ROOT hip
{
  OFFSET 0 90.174 2.4664
  CHANNELS 6 Xposition Yposition Zposition Zrotation Xrotation Yrotation
  JOINT abdomen
  {
    OFFSET 0 -1.186 -1.5018
    CHANNELS 6 Xposition Yposition Zposition Zrotation Xrotation Yrotation
    JOINT abdomen2
    {
      OFFSET 0 9.964 0.2134
      CHANNELS 6 Xposition Yposition Zposition Zrotation Xrotation Yrotation
      JOINT chest
      {
        OFFSET 0 13.134 -3.2573
        CHANNELS 6 Xposition Yposition Zposition Zrotation Xrotation Yrotation
        JOINT neck
        {
          OFFSET 0 20.686 -1.6905
          CHANNELS 6 Xposition Yposition Zposition Zrotation Xrotation Yrotation
          JOINT head
          {
            OFFSET 0 7.238 -0.1237
            CHANNELS 6 Xposition Yposition Zposition Zrotation Xrotation Yrotation
            End Site
            {
              OFFSET 0 0 0
            }
          }
        }
        JOINT lCollar
        {
          OFFSET 1.7069 20.075 5.0056
          CHANNELS 6 Xposition Yposition Zposition Zrotation Xrotation Yrotation
          JOINT lShldr
          {
            OFFSET 13.6458 -0.047 -4.849
            CHANNELS 6 Xposition Yposition Zposition Zrotation Xrotation Yrotation
            JOINT lForeArm
            {
              OFFSET 28.3255 -0.9759 2.2888
              CHANNELS 6 Xposition Yposition Zposition Zrotation Xrotation Yrotation
              JOINT lHand
              {
                OFFSET 22.1583 -0.53 10.8316
                CHANNELS 6 Xposition Yposition Zposition Zrotation Xrotation Yrotation
                JOINT lThumb1
                {
                  OFFSET 0.786 0.112 2.5817
                  CHANNELS 6 Xposition Yposition Zposition Zrotation Xrotation Yrotation
                  JOINT lThumb2
                  {
                    OFFSET 0.3601 -0.878 4.2331
                    CHANNELS 6 Xposition Yposition Zposition Zrotation Xrotation Yrotation
                    JOINT lThumb2_End
                    {
                      OFFSET 1.8127 -1.216 2.2227
                      CHANNELS 6 Xposition Yposition Zposition Zrotation Xrotation Yrotation
                      End Site
                      {
                        OFFSET 0.0181 -0.0122 0.0222
                      }
                    }
                  }
                }
                JOINT lCarpal1
                {
                  OFFSET 0.9571 1.114 1.7695
                  CHANNELS 6 Xposition Yposition Zposition Zrotation Xrotation Yrotation
                  JOINT lIndex1
                  {
                    OFFSET 4.1246 0.487 4.1451
                    CHANNELS 6 Xposition Yposition Zposition Zrotation Xrotation Yrotation
                    JOINT lIndex2
                    {
                      OFFSET 3.4052 -1.454 2.7682
                      CHANNELS 6 Xposition Yposition Zposition Zrotation Xrotation Yrotation
                      JOINT lIndex2_End
                      {
                        OFFSET 1.4531 -1.795 1.2713
                        CHANNELS 6 Xposition Yposition Zposition Zrotation Xrotation Yrotation
                        End Site
                        {
                          OFFSET 0.0145 -0.0179 0.0127
                        }
                      }
                    }
                  }
                  JOINT lMid1
                  {
                    OFFSET 5.6954 0.21 2.1184
                    CHANNELS 6 Xposition Yposition Zposition Zrotation Xrotation Yrotation
                    JOINT lMid2
                    {
                      OFFSET 3.9766 -1.54 2.3863
                      CHANNELS 6 Xposition Yposition Zposition Zrotation Xrotation Yrotation
                      JOINT lMid2_End
                      {
                        OFFSET 1.4042 -1.926 1.125
                        CHANNELS 6 Xposition Yposition Zposition Zrotation Xrotation Yrotation
                        End Site
                        {
                          OFFSET 0.014 -0.0193 0.0113
                        }
                      }
                    }
                  }
                }
                JOINT lCarpal2
                {
                  OFFSET 2.0956 0.66 -0.3894
                  CHANNELS 6 Xposition Yposition Zposition Zrotation Xrotation Yrotation
                  JOINT lRing1
                  {
                    OFFSET 5.0395 -0.09 2.4971
                    CHANNELS 6 Xposition Yposition Zposition Zrotation Xrotation Yrotation
                    JOINT lRing2
                    {
                      OFFSET 3.7921 -1.552 1.4806
                      CHANNELS 6 Xposition Yposition Zposition Zrotation Xrotation Yrotation
                      JOINT lRing2_End
                      {
                        OFFSET 1.4655 -1.808 0.9609
                        CHANNELS 6 Xposition Yposition Zposition Zrotation Xrotation Yrotation
                        End Site
                        {
                          OFFSET 0.0147 -0.0181 0.0096
                        }
                      }
                    }
                  }
                  JOINT lPinky1
                  {
                    OFFSET 4.9141 -1.269 0.3591
                    CHANNELS 6 Xposition Yposition Zposition Zrotation Xrotation Yrotation
                    JOINT lPinky2
                    {
                      OFFSET 3.1477 -1.685 0.8462
                      CHANNELS 6 Xposition Yposition Zposition Zrotation Xrotation Yrotation
                      JOINT lPinky2_End
                      {
                        OFFSET 0.8055 -1.585 0.7955
                        CHANNELS 6 Xposition Yposition Zposition Zrotation Xrotation Yrotation
                        End Site
                        {
                          OFFSET 0.0081 -0.0158 0.008
                        }
                      }
                    }
                  }
                }
              }
            }
          }
        }
        JOINT rCollar
        {
          OFFSET -1.7069 20.075 5.0056
          CHANNELS 6 Xposition Yposition Zposition Zrotation Xrotation Yrotation
          JOINT rShldr
          {
            OFFSET -13.6458 -0.047 -4.849
            CHANNELS 6 Xposition Yposition Zposition Zrotation Xrotation Yrotation
            JOINT rForeArm
            {
              OFFSET -28.3255 -0.9759 2.2888
              CHANNELS 6 Xposition Yposition Zposition Zrotation Xrotation Yrotation
              JOINT rHand
              {
                OFFSET -22.1583 -0.53 10.8316
                CHANNELS 6 Xposition Yposition Zposition Zrotation Xrotation Yrotation
                JOINT rThumb1
                {
                  OFFSET -0.786 0.112 2.5817
                  CHANNELS 6 Xposition Yposition Zposition Zrotation Xrotation Yrotation
                  JOINT rThumb2
                  {
                    OFFSET -0.3601 -0.878 4.2331
                    CHANNELS 6 Xposition Yposition Zposition Zrotation Xrotation Yrotation
                    JOINT rThumb2_End
                    {
                      OFFSET -1.8127 -1.216 2.2227
                      CHANNELS 6 Xposition Yposition Zposition Zrotation Xrotation Yrotation
                      End Site
                      {
                        OFFSET -0.0181 -0.0122 0.0222
                      }
                    }
                  }
                }
                JOINT rCarpal1
                {
                  OFFSET -0.9571 1.114 1.7695
                  CHANNELS 6 Xposition Yposition Zposition Zrotation Xrotation Yrotation
                  JOINT rIndex1
                  {
                    OFFSET -4.1246 0.487 4.1451
                    CHANNELS 6 Xposition Yposition Zposition Zrotation Xrotation Yrotation
                    JOINT rIndex2
                    {
                      OFFSET -3.4052 -1.454 2.7682
                      CHANNELS 6 Xposition Yposition Zposition Zrotation Xrotation Yrotation
                      JOINT rIndex2_End
                      {
                        OFFSET -1.4531 -1.795 1.2713
                        CHANNELS 6 Xposition Yposition Zposition Zrotation Xrotation Yrotation
                        End Site
                        {
                          OFFSET -0.0145 -0.018 0.0127
                        }
                      }
                    }
                  }
                  JOINT rMid1
                  {
                    OFFSET -5.6954 0.21 2.1184
                    CHANNELS 6 Xposition Yposition Zposition Zrotation Xrotation Yrotation
                    JOINT rMid2
                    {
                      OFFSET -3.9766 -1.54 2.3863
                      CHANNELS 6 Xposition Yposition Zposition Zrotation Xrotation Yrotation
                      JOINT rMid2_End
                      {
                        OFFSET -1.4042 -1.926 1.125
                        CHANNELS 6 Xposition Yposition Zposition Zrotation Xrotation Yrotation
                        End Site
                        {
                          OFFSET -0.014 -0.0193 0.0113
                        }
                      }
                    }
                  }
                }
                JOINT rCarpal2
                {
                  OFFSET -2.0956 0.66 -0.3894
                  CHANNELS 6 Xposition Yposition Zposition Zrotation Xrotation Yrotation
                  JOINT rRing1
                  {
                    OFFSET -5.0395 -0.09 2.4971
                    CHANNELS 6 Xposition Yposition Zposition Zrotation Xrotation Yrotation
                    JOINT rRing2
                    {
                      OFFSET -3.7921 -1.552 1.4806
                      CHANNELS 6 Xposition Yposition Zposition Zrotation Xrotation Yrotation
                      JOINT rRing2_End
                      {
                        OFFSET -1.4655 -1.808 0.9609
                        CHANNELS 6 Xposition Yposition Zposition Zrotation Xrotation Yrotation
                        End Site
                        {
                          OFFSET -0.0147 -0.0181 0.0096
                        }
                      }
                    }
                  }
                  JOINT rPinky1
                  {
                    OFFSET -4.9141 -1.269 0.3592
                    CHANNELS 6 Xposition Yposition Zposition Zrotation Xrotation Yrotation
                    JOINT rPinky2
                    {
                      OFFSET -3.1477 -1.685 0.8462
                      CHANNELS 6 Xposition Yposition Zposition Zrotation Xrotation Yrotation
                      JOINT rPinky2_End
                      {
                        OFFSET -0.8055 -1.585 0.7955
                        CHANNELS 6 Xposition Yposition Zposition Zrotation Xrotation Yrotation
                        End Site
                        {
                          OFFSET -0.0081 -0.0158 0.008
                        }
                      }
                    }
                  }
                }
              }
            }
          }
        }
      }
    }
  }
  JOINT lThigh
  {
    OFFSET 8.367 -8.2066 0.5982
    CHANNELS 6 Xposition Yposition Zposition Zrotation Xrotation Yrotation
    JOINT lShin
    {
      OFFSET 2.1923 -43.463 -0.4932
      CHANNELS 6 Xposition Yposition Zposition Zrotation Xrotation Yrotation
      JOINT lFoot
      {
        OFFSET 0.7333 -45.8593 -2.6451
        CHANNELS 6 Xposition Yposition Zposition Zrotation Xrotation Yrotation
        End Site
        {
          OFFSET 2.6618 -4.2699 12.3931
        }
      }
    }
  }
  JOINT rThigh
  {
    OFFSET -8.367 -8.2066 0.5982
    CHANNELS 6 Xposition Yposition Zposition Zrotation Xrotation Yrotation
    JOINT rShin
    {
      OFFSET -2.1923 -43.463 -0.4931
      CHANNELS 6 Xposition Yposition Zposition Zrotation Xrotation Yrotation
      JOINT rFoot
      {
        OFFSET -0.7333 -45.8593 -2.6451
        CHANNELS 6 Xposition Yposition Zposition Zrotation Xrotation Yrotation
        End Site
        {
          OFFSET -2.6618 -4.2699 12.3931
        }
      }
    }
  }
}
MOTION
Frames:	4
Frame Time:	0.0333333
0.110237 0.415993 -3.00716 -180 -22.9329 -180 -1.38778e-017 -1.186 -1.5018 0.887911 18.1346 -0.623941 1.38778e-017 9.964 0.2134 2.17513 36.2547 -1.70191 5.55112e-017 13.134 -3.2573 2.17513 36.2547 -1.70191 2.22045e-016 20.686 -1.6905 2.71244e-006 36.2237 -3.36896e-006 0 7.238 -0.1237 -2.47491e-007 -5.24662 -6.3001e-007 1.7069 20.075 5.0056 -13.9839 -0.0748611 -11.4036 13.6458 -0.047 -4.849 -48.8833 3.40426 0.0910787 28.3255 -0.9759 2.2888 -52.6924 -20.8545 -53.4057 22.1583 -0.53 10.8316 -24.8308 34.5878 10.3372 0.786 0.112 2.5817 3.18055e-015 1.59028e-015 -9.54166e-015 0.3601 -0.878 4.2331 3.18055e-015 1.59028e-015 -0 1.8127 -1.216 2.2227 3.18055e-015 0 -0 0.9571 1.114 1.7695 1.76556e-031 1.59028e-015 -6.36111e-015 4.1246 0.487 4.1451 3.18055e-015 -1.59028e-015 -3.18055e-015 3.4052 -1.454 2.7682 1.11319e-014 0 -3.18055e-015 1.4531 -1.795 1.2713 7.94503e-031 4.77083e-015 -9.54166e-015 5.6954 0.21 2.1184 3.18055e-015 -1.59028e-015 -3.18055e-015 3.9766 -1.54 2.3863 1.11319e-014 0 -3.18055e-015 1.4042 -1.926 1.125 7.94503e-031 4.77083e-015 -9.54166e-015 2.0956 0.66 -0.3894 1.76556e-031 1.59028e-015 -6.36111e-015 5.0395 -0.09 2.4971 3.18055e-015 -1.59028e-015 -3.18055e-015 3.7921 -1.552 1.4806 1.11319e-014 0 -3.18055e-015 1.4655 -1.808 0.9609 7.94503e-031 4.77083e-015 -9.54166e-015 4.9141 -1.269 0.3591 3.18055e-015 -1.59028e-015 -3.18055e-015 3.1477 -1.685 0.8462 1.11319e-014 0 -3.18055e-015 0.8055 -1.585 0.7955 7.94503e-031 4.77083e-015 -9.54166e-015 -1.7069 20.075 5.0056 14.2416 -0.0346657 11.6418 -13.6458 -0.047 -4.849 48.6723 3.33424 0.606173 -28.3255 -0.9759 2.2888 50.82 -24.645 52.0914 -22.1583 -0.53 10.8316 24.9722 36.2924 -7.42166 -0.786 0.112 2.5817 -8.11928e-009 1.61902e-006 3.25439e-006 -0.3601 -0.878 4.2331 1.29849e-006 -1.33991e-006 2.68795e-006 -1.8127 -1.216 2.2227 -9.69831e-007 1.06892e-006 -1.91447e-006 -0.9571 1.114 1.7695 -0 0 3.18055e-015 -4.1246 0.487 4.1451 -8.11927e-009 1.61902e-006 3.25439e-006 -3.4052 -1.454 2.7682 1.29849e-006 -1.33991e-006 2.68795e-006 -1.4531 -1.795 1.2713 -9.69831e-007 1.06892e-006 -1.91447e-006 -5.6954 0.21 2.1184 -8.11927e-009 1.61902e-006 3.25439e-006 -3.9766 -1.54 2.3863 1.29849e-006 -1.33991e-006 2.68795e-006 -1.4042 -1.926 1.125 -9.69831e-007 1.06892e-006 -1.91447e-006 -2.0956 0.66 -0.3894 -0 0 3.18055e-015 -5.0395 -0.09 2.4971 -8.11927e-009 1.61902e-006 3.25439e-006 -3.7921 -1.552 1.4806 1.29849e-006 -1.33991e-006 2.68795e-006 -1.4655 -1.808 0.9609 -9.69831e-007 1.06892e-006 -1.91447e-006 -4.9141 -1.269 0.3592 -8.11927e-009 1.61902e-006 3.25439e-006 -3.1477 -1.685 0.8462 1.29849e-006 -1.33991e-006 2.68795e-006 -0.8055 -1.585 0.7955 -9.69831e-007 1.06892e-006 -1.91447e-006 8.367 -8.2066 0.5982 128.574 -51.9348 151.21 2.1923 -43.463 -0.4932 -76.0576 13.2286 62.1561 0.7333 -45.8593 -2.6451 0.239847 11.8258 5.70372 -8.367 -8.2066 0.5982 -124.977 -52.1799 -148.546 -2.1923 -43.463 -0.4931 73.8605 18.105 -93.7999 -0.7333 -45.8593 -2.6451 -0.423137 13.8295 -8.92316 
0.110009 0.415308 -2.97021 -180 -22.9329 -180 -1.38778e-017 -1.186 -1.5018 0.887911 18.1346 -0.623941 0 9.964 0.2134 2.17513 36.2547 -1.70191 1.11022e-016 13.134 -3.2573 2.17513 36.2547 -1.70191 -2.22045e-016 20.686 -1.6905 -1.0242e-005 35.9943 6.30417e-006 0 7.238 -0.1237 3.13851e-007 -4.6181 -2.14839e-007 1.7069 20.075 5.0056 -13.87 -0.111579 -11.3474 13.6458 -0.047 -4.849 -48.9835 3.42319 0.0832024 28.3255 -0.9759 2.2888 -52.6925 -20.8545 -53.4056 22.1583 -0.53 10.8316 -24.8308 34.5878 10.3372 0.786 0.112 2.5817 -8.82781e-032 1.59028e-015 3.18055e-015 0.3601 -0.878 4.2331 -3.18055e-015 -1.59028e-015 9.54166e-015 1.8127 -1.216 2.2227 -6.36111e-015 0 6.36111e-015 0.9571 1.114 1.7695 1.59028e-015 1.59028e-015 3.18055e-015 4.1246 0.487 4.1451 -4.77083e-015 -1.59028e-015 6.36111e-015 3.4052 -1.454 2.7682 -6.36111e-015 -1.59028e-015 6.36111e-015 1.4531 -1.795 1.2713 -3.18055e-015 0 6.36111e-015 5.6954 0.21 2.1184 -4.77083e-015 -1.59028e-015 6.36111e-015 3.9766 -1.54 2.3863 -6.36111e-015 -1.59028e-015 6.36111e-015 1.4042 -1.926 1.125 -3.18055e-015 0 6.36111e-015 2.0956 0.66 -0.3894 1.59028e-015 1.59028e-015 3.18055e-015 5.0395 -0.09 2.4971 -4.77083e-015 -1.59028e-015 6.36111e-015 3.7921 -1.552 1.4806 -6.36111e-015 -1.59028e-015 6.36111e-015 1.4655 -1.808 0.9609 -3.18055e-015 0 6.36111e-015 4.9141 -1.269 0.3591 -4.77083e-015 -1.59028e-015 6.36111e-015 3.1477 -1.685 0.8462 -6.36111e-015 -1.59028e-015 6.36111e-015 0.8055 -1.585 0.7955 -3.18055e-015 0 6.36111e-015 -1.7069 20.075 5.0056 14.1163 -0.073563 11.5752 -13.6458 -0.047 -4.849 48.791 3.3562 0.615031 -28.3255 -0.9759 2.2888 50.8454 -24.5639 52.0978 -22.1583 -0.53 10.8316 24.9436 36.235 -7.50317 -0.786 0.112 2.5817 -3.18055e-015 6.36111e-015 9.54166e-015 -0.3601 -0.878 4.2331 -4.31753e-006 6.34451e-007 -2.15455e-006 -1.8127 -1.216 2.2227 3.33004e-006 3.6745e-006 6.75201e-006 -0.9571 1.114 1.7695 -3.18055e-015 6.36111e-015 6.36111e-015 -4.1246 0.487 4.1451 6.36111e-015 -4.77083e-015 -3.18055e-015 -3.4052 -1.454 2.7682 -4.31753e-006 6.34451e-007 -2.15455e-006 -1.4531 -1.795 1.2713 3.33004e-006 3.6745e-006 6.75201e-006 -5.6954 0.21 2.1184 6.36111e-015 -4.77083e-015 -3.18055e-015 -3.9766 -1.54 2.3863 -4.31753e-006 6.34451e-007 -2.15455e-006 -1.4042 -1.926 1.125 3.33004e-006 3.6745e-006 6.75201e-006 -2.0956 0.66 -0.3894 -3.18055e-015 6.36111e-015 6.36111e-015 -5.0395 -0.09 2.4971 6.36111e-015 -4.77083e-015 -3.18055e-015 -3.7921 -1.552 1.4806 -4.31753e-006 6.34451e-007 -2.15455e-006 -1.4655 -1.808 0.9609 3.33004e-006 3.6745e-006 6.75201e-006 -4.9141 -1.269 0.3592 6.36111e-015 -4.77083e-015 -3.18055e-015 -3.1477 -1.685 0.8462 -4.31753e-006 6.34451e-007 -2.15455e-006 -0.8055 -1.585 0.7955 3.33004e-006 3.6745e-006 6.75201e-006 8.367 -8.2066 0.5982 128.583 -51.9364 151.218 2.1923 -43.463 -0.4932 -75.9826 13.2835 62.1404 0.7333 -45.8593 -2.6451 0.244638 11.8219 5.70292 -8.367 -8.2066 0.5982 -124.977 -52.1809 -148.546 -2.1923 -43.463 -0.4931 73.8589 18.1047 -93.7978 -0.7333 -45.8593 -2.6451 -0.422594 13.8302 -8.92446 
0.109777 0.414621 -2.93326 -180 -22.9329 -180 0 -1.186 -1.5018 0.887911 18.1346 -0.623941 0 9.964 0.2134 2.17513 36.2547 -1.70191 0 13.134 -3.2573 2.17513 36.2547 -1.70191 1.11022e-016 20.686 -1.6905 5.7701e-006 35.7651 -4.21209e-006 0 7.238 -0.1237 -1.62755e-007 -3.98966 4.42835e-007 1.7069 20.075 5.0056 -13.7561 -0.148174 -11.2911 13.6458 -0.047 -4.849 -49.0838 3.44215 0.0753441 28.3255 -0.9759 2.2888 -52.6924 -20.8545 -53.4057 22.1583 -0.53 10.8316 -24.8308 34.5878 10.3372 0.786 0.112 2.5817 -1.11319e-014 -3.18055e-015 3.18055e-015 0.3601 -0.878 4.2331 2.62838e-006 1.46612e-007 -4.83209e-006 1.8127 -1.216 2.2227 1.24468e-006 1.3276e-006 2.64179e-006 0.9571 1.114 1.7695 -6.36111e-015 0 -0 4.1246 0.487 4.1451 -0 -1.59028e-015 -0 3.4052 -1.454 2.7682 2.62838e-006 1.46612e-007 -4.83209e-006 1.4531 -1.795 1.2713 1.24468e-006 1.3276e-006 2.64179e-006 5.6954 0.21 2.1184 -0 -1.59028e-015 -0 3.9766 -1.54 2.3863 2.62838e-006 1.46612e-007 -4.83209e-006 1.4042 -1.926 1.125 1.24468e-006 1.3276e-006 2.64179e-006 2.0956 0.66 -0.3894 -6.36111e-015 0 -0 5.0395 -0.09 2.4971 -0 -1.59028e-015 -0 3.7921 -1.552 1.4806 2.62838e-006 1.46612e-007 -4.83209e-006 1.4655 -1.808 0.9609 1.24468e-006 1.3276e-006 2.64179e-006 4.9141 -1.269 0.3591 -0 -1.59028e-015 -0 3.1477 -1.685 0.8462 2.62838e-006 1.46612e-007 -4.83209e-006 0.8055 -1.585 0.7955 1.24468e-006 1.3276e-006 2.64179e-006 -1.7069 20.075 5.0056 13.991 -0.112297 11.5084 -13.6458 -0.047 -4.849 48.9097 3.37817 0.623834 -28.3255 -0.9759 2.2888 50.8708 -24.4827 52.1042 -22.1583 -0.53 10.8316 24.9149 36.1776 -7.58462 -0.786 0.112 2.5817 -6.57379e-007 4.03362e-006 5.3631e-006 -0.3601 -0.878 4.2331 9.79871e-007 -2.68607e-006 -1.33852e-006 -1.8127 -1.216 2.2227 -9.79871e-007 2.68607e-006 1.33852e-006 -0.9571 1.114 1.7695 -6.36111e-015 -7.95139e-015 -3.18055e-015 -4.1246 0.487 4.1451 -6.57379e-007 4.03362e-006 5.3631e-006 -3.4052 -1.454 2.7682 9.79871e-007 -2.68607e-006 -1.33852e-006 -1.4531 -1.795 1.2713 -9.79871e-007 2.68607e-006 1.33852e-006 -5.6954 0.21 2.1184 -6.57379e-007 4.03362e-006 5.3631e-006 -3.9766 -1.54 2.3863 9.79871e-007 -2.68607e-006 -1.33852e-006 -1.4042 -1.926 1.125 -9.79871e-007 2.68607e-006 1.33852e-006 -2.0956 0.66 -0.3894 -6.36111e-015 -7.95139e-015 -3.18055e-015 -5.0395 -0.09 2.4971 -6.57379e-007 4.03362e-006 5.3631e-006 -3.7921 -1.552 1.4806 9.79871e-007 -2.68607e-006 -1.33852e-006 -1.4655 -1.808 0.9609 -9.79871e-007 2.68607e-006 1.33852e-006 -4.9141 -1.269 0.3592 -6.57379e-007 4.03362e-006 5.3631e-006 -3.1477 -1.685 0.8462 9.79871e-007 -2.68607e-006 -1.33852e-006 -0.8055 -1.585 0.7955 -9.79871e-007 2.68607e-006 1.33852e-006 8.367 -8.2066 0.5982 128.591 -51.9379 151.225 2.1923 -43.463 -0.4932 -75.9076 13.3383 62.1246 0.7333 -45.8593 -2.6451 0.249457 11.818 5.7021 -8.367 -8.2066 0.5982 -124.978 -52.182 -148.546 -2.1923 -43.463 -0.4931 73.8571 18.1044 -93.7956 -0.7333 -45.8593 -2.6451 -0.422044 13.831 -8.92582 
0.109545 0.413932 -2.8963 -180 -22.9329 -180 -1.38778e-017 -1.186 -1.5018 0.887911 18.1346 -0.623941 0 9.964 0.2134 2.17513 36.2547 -1.70191 1.11022e-016 13.134 -3.2573 2.17513 36.2547 -1.70191 -2.22045e-016 20.686 -1.6905 -6.60084e-006 35.5357 -1.83216e-006 0 7.238 -0.1237 3.38441e-008 -3.36136 5.19334e-008 1.7069 20.075 5.0056 -13.6421 -0.184654 -11.2348 13.6458 -0.047 -4.849 -49.184 3.46112 0.0675253 28.3255 -0.9759 2.2888 -52.6924 -20.8545 -53.4056 22.1583 -0.53 10.8316 -24.8308 34.5878 10.3372 0.786 0.112 2.5817 3.18055e-015 -4.77083e-015 3.18055e-015 0.3601 -0.878 4.2331 1.24453e-006 1.32861e-006 2.64119e-006 1.8127 -1.216 2.2227 -3.18055e-015 0 3.18055e-015 0.9571 1.114 1.7695 1.59028e-015 -4.77083e-015 6.36111e-015 4.1246 0.487 4.1451 4.77083e-015 -4.77083e-015 -0 3.4052 -1.454 2.7682 1.24453e-006 1.32861e-006 2.64119e-006 1.4531 -1.795 1.2713 1.59028e-015 -1.59028e-015 3.18055e-015 5.6954 0.21 2.1184 4.77083e-015 -4.77083e-015 -0 3.9766 -1.54 2.3863 1.24453e-006 1.32861e-006 2.64119e-006 1.4042 -1.926 1.125 1.59028e-015 -1.59028e-015 3.18055e-015 2.0956 0.66 -0.3894 1.59028e-015 -4.77083e-015 6.36111e-015 5.0395 -0.09 2.4971 4.77083e-015 -4.77083e-015 -0 3.7921 -1.552 1.4806 1.24453e-006 1.32861e-006 2.64119e-006 1.4655 -1.808 0.9609 1.59028e-015 -1.59028e-015 3.18055e-015 4.9141 -1.269 0.3591 4.77083e-015 -4.77083e-015 -0 3.1477 -1.685 0.8462 1.24453e-006 1.32861e-006 2.64119e-006 0.8055 -1.585 0.7955 1.59028e-015 -1.59028e-015 3.18055e-015 -1.7069 20.075 5.0056 13.8656 -0.150888 11.4415 -13.6458 -0.047 -4.849 49.0283 3.40017 0.632593 -28.3255 -0.9759 2.2888 50.8961 -24.4015 52.1105 -22.1583 -0.53 10.8316 24.8861 36.1202 -7.66606 -0.786 0.112 2.5817 0 0 -1.27222e-014 -0.3601 -0.878 4.2331 -3.42454e-007 1.90821e-006 2.50897e-006 -1.8127 -1.216 2.2227 -1.95217e-006 3.74249e-006 -5.90326e-007 -0.9571 1.114 1.7695 -8.82781e-032 -1.59028e-015 -3.18055e-015 -4.1246 0.487 4.1451 6.36111e-015 -6.36111e-015 -0 -3.4052 -1.454 2.7682 -3.42454e-007 1.90821e-006 2.50897e-006 -1.4531 -1.795 1.2713 -1.95217e-006 3.74249e-006 -5.90326e-007 -5.6954 0.21 2.1184 6.36111e-015 -6.36111e-015 -0 -3.9766 -1.54 2.3863 -3.42454e-007 1.90821e-006 2.50897e-006 -1.4042 -1.926 1.125 -1.95217e-006 3.74249e-006 -5.90326e-007 -2.0956 0.66 -0.3894 -8.82781e-032 -1.59028e-015 -3.18055e-015 -5.0395 -0.09 2.4971 6.36111e-015 -6.36111e-015 -0 -3.7921 -1.552 1.4806 -3.42454e-007 1.90821e-006 2.50897e-006 -1.4655 -1.808 0.9609 -1.95217e-006 3.74249e-006 -5.90326e-007 -4.9141 -1.269 0.3592 6.36111e-015 -6.36111e-015 -0 -3.1477 -1.685 0.8462 -3.42454e-007 1.90821e-006 2.50897e-006 -0.8055 -1.585 0.7955 -1.95217e-006 3.74249e-006 -5.90326e-007 8.367 -8.2066 0.5982 128.6 -51.9394 151.232 2.1923 -43.463 -0.4932 -75.8325 13.3931 62.1087 0.7333 -45.8593 -2.6451 0.254242 11.8142 5.70129 -8.367 -8.2066 0.5982 -124.978 -52.183 -148.546 -2.1923 -43.463 -0.4931 73.8554 18.1042 -93.7934 -0.7333 -45.8593 -2.6451 -0.421458 13.8317 -8.92714 
